<!DOCTYPE svg PUBLIC "-//W3C//DTD SVG 20010904//EN" "http://www.w3.org/TR/2001/REC-SVG-20010904/DTD/svg10.dtd">
<svg version="1.0" xmlns="http://www.w3.org/2000/svg" width="1600px" height="732px" viewBox="0 0 16000 7320" preserveAspectRatio="xMidYMid meet">
<g id="layer101" fill="#ffffff" stroke="none">
 <path d="M10010 7310 c-398 -27 -798 -226 -1071 -536 -170 -192 -272 -385 -361 -684 l-13 -44 -3054 -1227 -3055 -1227 -88 44 c-491 246 -1017 244 -1498 -7 -461 -241 -781 -702 -851 -1226 -17 -127 -6 -412 20 -531 31 -140 75 -264 141 -397 229 -459 654 -775 1175 -873 126 -23 426 -23 550 1 625 122 1100 552 1272 1152 l28 96 3055 1228 3055 1228 106 -53 c125 -63 274 -114 419 -145 80 -17 149 -23 290 -26 l185 -3 671 -961 670 -961 12 -148 c14 -174 41 -322 87 -475 233 -768 871 -1342 1661 -1495 125 -24 394 -43 409 -29 5 5 47 9 95 9 326 1 741 128 1057 323 549 340 922 928 1003 1577 13 109 13 416 0 517 -54 407 -213 787 -459 1093 -70 88 -230 249 -319 322 -349 287 -797 460 -1250 484 l-123 7 -1037 759 -1037 759 -16 97 c-88 526 -406 956 -885 1195 -248 124 -533 177 -844 157z m347 -446 c232 -41 460 -161 629 -332 96 -96 158 -183 219 -307 97 -196 131 -359 122 -589 -11 -307 -126 -567 -346 -787 -192 -192 -420 -304 -692 -341 -89 -12 -319 1 -370 21 l-24 9 25 10 c563 227 630 260 752 371 131 121 236 299 279 477 32 132 31 314 -4 447 -114 433 -519 728 -967 704 -146 -8 -212 -28 -560 -167 -168 -67 -311 -125 -319 -128 -20 -8 28 78 88 158 63 83 198 214 280 269 255 174 575 240 888 185z m3763 -3279 c281 -62 531 -198 729 -398 350 -352 495 -839 395 -1325 -53 -258 -194 -518 -384 -712 -245 -250 -555 -396 -913 -431 -581 -56 -1163 273 -1423 806 -201 413 -200 867 2 1280 204 416 597 708 1064 791 104 18 429 12 530 -11z m-12287 -231 c15 -3 27 -9 27 -13 0 -4 -120 -55 -267 -114 -349 -139 -443 -199 -575 -366 -65 -81 -147 -242 -171 -336 -82 -309 0 -644 212 -877 84 -91 175 -159 286 -214 123 -60 224 -85 370 -91 185 -8 245 7 618 154 175 69 321 123 324 119 12 -12 -117 -186 -197 -266 -101 -101 -207 -176 -333 -235 -145 -69 -331 -115 -461 -115 -23 0 -46 -4 -51 -9 -15 -15 -195 5 -304 34 -640 171 -1016 822 -846 1465 30 112 125 309 190 395 190 251 460 417 762 471 79 13 357 12 416 -2z"/>
 <path d="M13745 3324 c-131 -18 -191 -29 -260 -51 -362 -114 -654 -412 -759 -774 -40 -139 -49 -224 -43 -386 6 -155 21 -235 72 -368 144 -384 500 -668 915 -731 237 -35 479 4 697 115 303 153 531 448 610 786 23 100 22 333 -2 460 -87 465 -451 834 -915 929 -77 15 -262 27 -315 20z"/>
 </g>

</svg>